<svg xmlns="http://www.w3.org/2000/svg" width="31" height="31" viewBox="0 0 31 31" fill="none">
                                                <g clip-path="url(#clip0_1355_128)">
                                                    <path d="M30.3017 14.8709L23.4837 8.05279C23.2388 7.7668 22.8084 7.73346 22.5224 7.97843C22.2364 8.22335 22.203 8.65377 22.448 8.93976C22.4709 8.96642 22.4957 8.99133 22.5224 9.01412L28.1745 14.6731H1.18178C0.805268 14.6731 0.5 14.9784 0.5 15.355C0.5 15.7315 0.805268 16.0367 1.18178 16.0367H28.1745L22.5224 21.6889C22.2364 21.9338 22.203 22.3642 22.448 22.6502C22.693 22.9362 23.1234 22.9696 23.4093 22.7246C23.436 22.7017 23.4609 22.6769 23.4837 22.6502L30.3018 15.8321C30.5661 15.5663 30.5661 15.1368 30.3017 14.8709Z" fill="#FFD28D"></path>
                                                </g>
                                                <defs>
                                                    <clipPath id="clip0_1355_1284">
                                                        <rect width="30" height="30" fill="white" transform="translate(0.5 0.351562)"></rect>
                                                    </clipPath>
                                                </defs>
                                            </svg>