<svg xmlns="http://www.w3.org/2000/svg" width="76" height="76" viewBox="0 0 76 76" fill="none">
                                        <g clip-path="url(#clip0_1372_238)">
                                            <path d="M21.9455 45.4823C21.9455 48.7249 19.3169 51.3535 16.0742 51.3535C12.8318 51.3535 10.2031 48.7249 10.2031 45.4823C10.2031 42.2397 12.8318 39.611 16.0742 39.611C19.3169 39.611 21.9455 42.2397 21.9455 45.4823Z" stroke="#FFD28D" stroke-miterlimit="10" stroke-linecap="round" stroke-linejoin="round"></path>
                                            <path d="M21.9453 47.832H55.9982" stroke="#FFD28D" stroke-miterlimit="10" stroke-linecap="round" stroke-linejoin="round"></path>
                                            <path d="M16.9047 44.652L15.2441 46.3125" stroke="#FFD28D" stroke-miterlimit="10" stroke-linecap="round" stroke-linejoin="round"></path>
                                            <path d="M67.7409 45.4823C67.7409 48.7249 65.1124 51.3535 61.8696 51.3535C58.6272 51.3535 55.9985 48.7249 55.9985 45.4823C55.9985 42.2397 58.6272 39.611 61.8696 39.611C65.1124 39.611 67.7409 42.2397 67.7409 45.4823Z" stroke="#FFD28D" stroke-miterlimit="10" stroke-linecap="round" stroke-linejoin="round"></path>
                                            <path d="M61.0391 44.652L62.6996 46.3125" stroke="#FFD28D" stroke-miterlimit="10" stroke-linecap="round" stroke-linejoin="round"></path>
                                            <path d="M10.2031 46.6578L4.53838 45.0393C3.02607 44.6072 1.9834 43.225 1.9834 41.6521V34.6401C1.9834 33.4558 2.86538 32.4567 4.04062 32.3098L8.38359 31.7669C10.3649 31.5192 12.2899 30.9365 14.0758 30.0434L19.6485 27.2571C21.9312 26.1157 24.4484 25.5216 27.0004 25.5216H37.4622C40.3655 25.5216 43.2083 26.3495 45.6577 27.9081L54.8241 33.7413C54.8241 33.7413 65.4684 33.7413 72.109 36.8251C73.7534 37.5888 74.7861 39.2574 74.7861 41.0708V44.969C74.7861 46.7867 73.7347 47.832 72.4377 47.832" stroke="#FFD28D" stroke-miterlimit="10" stroke-linecap="round" stroke-linejoin="round"></path>
                                            <path d="M24.2939 33.7402H22.029C20.4718 33.7402 18.9784 33.1216 17.8773 32.0205L16.0742 30.2176" stroke="#FFD28D" stroke-miterlimit="10" stroke-linecap="round" stroke-linejoin="round"></path>
                                            <path d="M54.8238 33.7402H28.9907" stroke="#FFD28D" stroke-miterlimit="10" stroke-linecap="round" stroke-linejoin="round"></path>
                                            <path d="M26.6426 43.1348H51.3015" stroke="#FFD28D" stroke-miterlimit="10" stroke-linecap="round" stroke-linejoin="round"></path>
                                            <path d="M1.9834 37.2637H4.33184" stroke="#FFD28D" stroke-miterlimit="10" stroke-linecap="round" stroke-linejoin="round"></path>
                                            <path d="M71.2637 39.6113H74.1014" stroke="#FFD28D" stroke-miterlimit="10" stroke-linecap="round" stroke-linejoin="round"></path>
                                            <path d="M33.688 33.7402V25.5206" stroke="#FFD28D" stroke-miterlimit="10" stroke-linecap="round" stroke-linejoin="round"></path>
                                            <path d="M20.1841 33.2637L21.7128 26.511" stroke="#FFD28D" stroke-miterlimit="10" stroke-linecap="round" stroke-linejoin="round"></path>
                                        </g>
                                        <defs>
                                            <clipPath id="clip0_1372_62383">
                                                <rect width="75" height="75" fill="white" transform="translate(0.884766 0.9375)"></rect>
                                            </clipPath>
                                        </defs>
                                    </svg>