<svg xmlns="http://www.w3.org/2000/svg" width="77" height="77" viewBox="0 0 77 77" fill="none">
                                        <path d="M47.2937 40.5682H45.6574C44.6929 40.5682 43.768 40.1851 43.0861 39.5031C42.4041 38.8212 42.021 37.8962 42.021 36.9318C42.021 37.8962 41.6379 38.8212 40.9559 39.5031C40.274 40.1851 39.3491 40.5682 38.3846 40.5682C37.4202 40.5682 36.4953 40.1851 35.8133 39.5031C35.1314 38.8212 34.7483 37.8962 34.7483 36.9318C34.7483 37.8962 34.3652 38.8212 33.6832 39.5031C33.0013 40.1851 32.0763 40.5682 31.1119 40.5682H29.4755M26.5665 24.2045H32.021M32.4155 55.1136H44.3537C45.5872 55.1136 46.8004 55.4274 47.8793 56.0253C48.9582 56.6233 49.8672 57.4858 50.521 58.5318L50.6574 58.75H54.7483V18.75H22.021V58.75H26.1119L26.2483 58.5318C26.902 57.4858 27.8111 56.6233 28.8899 56.0253C29.9688 55.4274 31.182 55.1136 32.4155 55.1136ZM38.3846 47.8409C35.9736 47.8409 33.6613 46.8831 31.9564 45.1782C30.2515 43.4734 29.2937 41.1611 29.2937 38.75C29.2937 36.3389 30.2515 34.0266 31.9564 32.3218C33.6613 30.6169 35.9736 29.6591 38.3846 29.6591C40.7957 29.6591 43.108 30.6169 44.8129 32.3218C46.5178 34.0266 47.4755 36.3389 47.4755 38.75C47.4755 41.1611 46.5178 43.4734 44.8129 45.1782C43.108 46.8831 40.7957 47.8409 38.3846 47.8409Z" stroke="#FFD28D"></path>
                                    </svg>