<svg xmlns="http://www.w3.org/2000/svg" width="25" height="25" viewBox="0 0 25 25" fill="none">
                                            <mask id="mask0_1166_82205" style="mask-type:luminance" maskUnits="userSpaceOnUse" x="0" y="0" width="25" height="25">
                                                <path d="M0.995117 0.140627H24.9951V24.1406H0.995117V0.140627Z" fill="white"></path>
                                            </mask>
                                            <g mask="url(#mask0_1166_8220)">
                                                <path d="M12.0732 18.6094H13.917M17.6152 18.6094H19.4589M6.54198 18.6094H8.38571M12.0732 13.0781H13.917M17.6152 13.0781H19.4589M6.54198 13.0781H8.38571M1.93262 8.45311H24.0683M18.537 5.68749V1.07813M7.46387 5.68749V1.07813M5.63077 23.2031H20.3701C22.4125 23.2031 24.0683 21.5474 24.0683 19.5049V6.62006C24.0683 4.57763 22.4125 2.92186 20.3701 2.92186H5.63077C3.58834 2.92186 1.93262 4.57763 1.93262 6.62006V19.5049C1.93262 21.5474 3.58834 23.2031 5.63077 23.2031Z" stroke="#FFD28D" stroke-miterlimit="10" stroke-linecap="round" stroke-linejoin="round"></path>
                                            </g>
                                        </svg>