<svg xmlns="http://www.w3.org/2000/svg" width="73" height="73" viewBox="0 0 73 73" fill="none">
                                        <path d="M17.2451 62.3031C19.7321 56.4981 21.2771 54.1461 29.1011 48.9696C31.1906 43.2201 35.1551 40.0566 38.5421 37.4016C40.1381 31.0596 40.3571 24.3006 39.1181 21.5586C38.8031 23.3376 36.3371 25.5591 33.3731 27.1041C34.6496 30.1416 36.8711 32.8971 39.2501 34.0746" stroke="#FFD28D" stroke-linecap="round" stroke-linejoin="round"></path>
                                        <path d="M53.4852 62.6624C52.3077 55.8164 51.0102 51.3479 55.7667 47.7434C49.5687 48.6809 45.3882 42.4829 45.3882 42.4829C39.6957 45.7259 35.8032 49.6169 31.7682 51.5639C25.5687 59.4914 23.4432 58.9874 17.2452 62.3024M17.2452 62.3024C17.2452 62.3024 17.7852 64.4999 17.6172 65.6894H13.3647C14.7222 64.6439 16.3077 64.2839 17.2452 62.3024ZM39.2502 34.0739C35.9352 33.5219 31.8627 31.0229 29.8932 28.5014M53.3142 20.4434C54.1077 27.2429 49.0167 29.9894 49.4967 35.7554" stroke="#FFD28D" stroke-linecap="round" stroke-linejoin="round"></path>
                                        <path d="M48.0041 15.2387C47.3891 15.8447 46.7471 16.2527 45.5171 16.2527C44.2871 16.2527 44.0246 13.4927 44.0531 12.0827C44.0816 10.6727 44.2511 7.22267 48.0506 7.18967C50.5781 7.16717 51.2261 8.86067 50.9741 11.9597C50.7221 15.0587 50.6246 16.5332 51.5141 17.6177C53.7491 17.1617 55.0466 18.2177 56.0066 19.6127C56.9666 21.0077 57.9536 24.4877 60.2366 27.4922C60.4511 33.6182 58.7216 36.7412 54.5411 39.1922C56.9441 36.9332 57.5921 32.0567 57.2801 29.0522C57.2801 29.0522 53.3396 26.0507 53.2886 23.9897M49.4966 35.7557C53.9651 38.3747 56.4701 41.1857 60.2531 45.0767C61.4426 51.0587 55.2866 50.8667 53.4851 62.6627M53.4851 62.6627C54.9746 63.6722 56.1746 65.2817 59.2976 65.6897H51.2276C51.0341 64.1282 53.4851 62.6627 53.4851 62.6627ZM42.9386 17.6447C42.9386 17.6447 40.3511 18.4097 39.1391 18.9152C35.5691 20.4032 32.2961 23.0717 29.8931 28.5002" stroke="#FFD28D" stroke-linecap="round" stroke-linejoin="round"></path>
                                    </svg>