<svg width="40" height="55" viewBox="0 0 55 52" fill="none" xmlns="http://www.w3.org/2000/svg">
                                                <g clip-path="url(#clip0_1166_8452)">
                                                    <path d="M38.0234 25.4001L29.5137 16.8902C29.208 16.5333 28.6708 16.4917 28.3138 16.7974C27.9569 17.1031 27.9153 17.6403 28.221 17.9973C28.2495 18.0306 28.2805 18.0617 28.3138 18.0901L35.3684 25.1532H1.6781C1.20816 25.1532 0.827148 25.5343 0.827148 26.0043C0.827148 26.4743 1.20816 26.8552 1.6781 26.8552H35.3684L28.3138 33.9098C27.9569 34.2155 27.9153 34.7527 28.221 35.1097C28.5268 35.4666 29.0639 35.5082 29.4209 35.2025C29.4542 35.174 29.4852 35.1429 29.5137 35.1097L38.0235 26.5999C38.3534 26.2681 38.3534 25.732 38.0234 25.4001Z" fill="#FFD28D"></path>
                                                </g>
                                            </svg>