<svg xmlns="http://www.w3.org/2000/svg" width="25" height="25" viewBox="0 0 25 25" fill="none">
                                            <g clip-path="url(#clip0_1316_214)">
                                                <path d="M20.548 5.84478C20.98 4.64978 19.822 3.49178 18.627 3.92478L4.02203 9.20678C2.82303 9.64078 2.67803 11.2768 3.78103 11.9158L8.44303 14.6148L12.606 10.4518C12.7946 10.2696 13.0472 10.1688 13.3094 10.1711C13.5716 10.1734 13.8224 10.2786 14.0078 10.464C14.1933 10.6494 14.2984 10.9002 14.3007 11.1624C14.303 11.4246 14.2022 11.6772 14.02 11.8658L9.85703 16.0288L12.557 20.6908C13.195 21.7938 14.831 21.6478 15.265 20.4498L20.548 5.84478Z" fill="#040D10"></path>
                                            </g>
                                            <defs>
                                                <clipPath id="clip0_1316_214">
                                                    <rect width="24" height="24" fill="white" transform="translate(0.312988 0.158203)"></rect>
                                                </clipPath>
                                            </defs>
                                        </svg>