<svg xmlns="http://www.w3.org/2000/svg" width="76" height="77" viewBox="0 0 76 77" fill="none">
                                        <path d="M49.1598 46.8053C46.0536 44.0443 42.0422 42.5193 37.8864 42.5193C33.7305 42.5193 29.7191 44.0443 26.6129 46.8053M58.1682 37.7968C52.6669 32.6527 45.4166 29.791 37.8849 29.791C30.3532 29.791 23.1029 32.6527 17.6016 37.7968" stroke="#FFD28D" stroke-linecap="round" stroke-linejoin="round"></path>
                                        <path d="M66.1744 27.8471C58.3882 20.9012 48.3187 17.0625 37.8846 17.0625C27.4504 17.0625 17.3809 20.9012 9.59473 27.8471" stroke="#FFD28D" stroke-linecap="round" stroke-linejoin="round"></path>
                                        <path d="M37.8849 62.3597C36.9511 62.3597 36.0381 62.0828 35.2616 61.564C34.4851 61.0451 33.8799 60.3077 33.5225 59.4449C33.1651 58.582 33.0716 57.6326 33.2538 56.7167C33.436 55.8007 33.8857 54.9594 34.5461 54.299C35.2065 53.6387 36.0478 53.1889 36.9638 53.0067C37.8797 52.8246 38.8291 52.9181 39.6919 53.2754C40.5547 53.6328 41.2922 54.238 41.811 55.0146C42.3299 55.7911 42.6068 56.704 42.6068 57.6379C42.6068 58.8902 42.1093 60.0912 41.2238 60.9767C40.3383 61.8623 39.1373 62.3597 37.8849 62.3597Z" fill="#FFD28D"></path>
                                    </svg>